<svg xmlns="http://www.w3.org/2000/svg" width="576" height="576" viewBox="0 0 576 576">
<g>
<path d="M 120.06,301.65 L 130.19,316.87 L 136.62,326.56 L 139.63,331.10 L 142.60,335.59 L 144.03,337.74 L 146.84,341.99 L 148.18,344.02 L 150.81,348.00 L 152.06,349.89 L 154.49,353.58 L 155.63,355.31 L 157.86,358.69 L 158.88,360.25 L 160.88,363.28 L 161.78,364.66 L 163.52,367.33 L 164.30,368.51 L 165.78,370.78 L 166.41,371.76 L 167.61,373.61 L 168.10,374.37 L 169.00,375.78 L 169.33,376.30 L 169.92,377.23 L 170.08,377.51 L 170.33,377.94 L 170.33,377.96 L 170.57,378.64 L 171.00,379.48 L 171.34,380.05 L 172.08,381.28 L 172.53,381.99 L 173.48,383.48 L 174.01,384.27 L 174.95,385.68 L 175.34,386.28 L 176.07,387.40 L 176.36,387.85 L 176.88,388.69 L 177.06,389.00 L 177.37,389.56 L 177.45,389.74 L 177.56,390.03 L 177.54,390.07 L 177.46,390.09 L 177.35,390.01 L 177.07,389.76 L 176.87,389.55 L 176.41,389.05 L 176.11,388.71 L 175.47,387.96 L 175.08,387.50 L 174.27,386.51 L 173.79,385.93 L 172.81,384.70 L 172.25,384.00 L 171.10,382.54 L 170.47,381.72 L 169.15,380.03 L 168.44,379.11 L 166.97,377.20 L 166.18,376.17 L 162.87,371.81 L 161.00,369.33 L 155.00,361.31 L 151.24,356.25 L 149.45,353.81 L 142.47,344.25 L 139.05,339.46 L 135.63,334.65 L 133.88,332.16 L 130.36,327.12 L 128.52,324.47 L 124.78,319.05 L 122.80,316.15 L 118.74,310.22 L 116.56,307.00 L 109.13,296.08 L 104.61,289.42 L 102.55,286.40 L 98.56,280.53 L 96.76,277.88 L 93.26,272.75 L 91.69,270.45 L 88.67,266.02 L 87.32,264.04 L 84.72,260.25 L 83.57,258.58 L 81.36,255.37 L 80.40,253.98 L 78.55,251.31 L 77.75,250.17 L 76.23,247.99 L 75.58,247.07 L 74.35,245.34 L 73.83,244.63 L 72.85,243.29 L 72.45,242.74 L 71.69,241.75 L 71.38,241.36 L 70.81,240.65 L 70.59,240.39 L 70.17,239.92 L 70.00,239.76 L 69.44,239.30 L 69.26,239.24 L 68.92,239.75 L 68.73,240.76 L 68.64,241.66 L 68.56,242.63 L 68.52,243.22 L 68.44,244.47 L 68.41,245.22 L 68.34,246.78 L 68.31,247.69 L 68.25,249.59 L 68.22,250.67 L 68.16,252.91 L 68.14,254.18 L 68.09,256.79 L 68.06,258.25 L 68.02,261.25 L 68.00,262.91 L 67.96,266.33 L 67.94,268.20 L 67.90,272.04 L 67.89,274.13 L 67.86,278.43 L 67.84,280.76 L 67.81,285.52 L 67.80,288.09 L 67.77,293.35 L 67.76,296.17 L 67.50,353.50 L 60.50,353.50 L 60.50,226.50 L 65.06,226.20 L 69.62,225.91 M 461.00,229.38 L 460.59,232.06 L 460.29,232.69 L 460.09,232.91 L 459.67,233.30 L 459.42,233.39 L 458.68,233.51 L 457.81,233.59 L 457.19,233.63 L 455.86,233.70 L 455.04,233.73 L 453.30,233.79 L 452.30,233.82 L 450.23,233.87 L 449.08,233.90 L 446.73,233.94 L 445.47,233.95 L 440.23,234.00 L 417.00,234.00 L 417.00,292.42 L 416.99,304.19 L 416.97,311.69 L 416.95,315.23 L 416.92,322.13 L 416.90,325.29 L 416.85,331.42 L 416.82,334.14 L 416.79,336.80 L 416.78,338.03 L 416.75,340.43 L 416.73,341.52 L 416.70,343.64 L 416.68,344.59 L 416.65,346.41 L 416.63,347.19 L 416.59,348.69 L 416.57,349.31 L 416.53,350.47 L 416.51,350.91 L 416.48,351.70 L 416.45,351.95 L 416.41,352.36 L 416.39,352.42 L 415.83,353.15 L 415.27,353.41 L 414.02,353.86 L 413.30,353.96 L 411.83,354.06 L 411.19,353.96 L 409.99,353.66 L 409.67,353.33 L 409.60,352.96 L 409.55,352.41 L 409.53,351.99 L 409.49,351.06 L 409.47,350.46 L 409.43,349.17 L 409.41,348.39 L 409.37,346.76 L 409.35,345.83 L 409.31,343.88 L 409.29,342.79 L 409.26,340.55 L 409.24,339.32 L 409.21,336.79 L 409.20,335.43 L 409.14,329.74 L 409.11,326.56 L 409.07,319.99 L 409.05,316.42 L 409.02,309.13 L 409.01,305.27 L 409.00,297.41 L 409.00,234.00 L 387.62,234.00 L 383.56,234.00 L 381.10,233.99 L 379.98,233.98 L 377.83,233.96 L 376.86,233.94 L 374.99,233.91 L 374.16,233.88 L 371.09,233.76 L 369.91,233.66 L 367.78,233.43 L 367.01,233.26 L 365.66,232.88 L 365.22,232.62 L 364.49,232.06 L 364.31,231.70 L 364.05,230.93 L 364.04,230.45 L 364.09,229.42 L 364.17,228.81 L 364.50,226.50 L 461.00,225.98 M 382.27,187.67 L 382.35,188.14 L 382.17,188.71 L 381.98,189.09 L 381.54,189.90 L 381.24,190.36 L 380.58,191.32 L 380.19,191.82 L 379.40,192.88 L 378.69,193.85 L 378.26,194.46 L 377.34,195.75 L 376.81,196.50 L 375.71,198.06 L 375.11,198.92 L 372.58,202.56 L 371.19,204.57 L 368.35,208.70 L 366.92,210.81 L 363.23,216.23 L 360.88,219.67 L 359.77,221.30 L 355.46,227.63 L 353.52,230.48 L 349.78,235.95 L 348.11,238.39 L 344.91,243.06 L 343.51,245.11 L 340.82,249.03 L 339.65,250.72 L 337.44,253.92 L 336.51,255.27 L 334.74,257.81 L 334.02,258.84 L 332.67,260.76 L 332.14,261.50 L 331.14,262.92 L 330.36,264.03 L 329.92,264.65 L 328.07,267.30 L 327.05,268.78 L 322.76,275.02 L 320.82,277.87 L 313.79,288.25 L 316.72,292.37 L 318.15,294.37 L 319.47,296.21 L 320.32,297.39 L 322.14,299.93 L 323.25,301.46 L 325.59,304.71 L 326.96,306.60 L 329.82,310.57 L 331.46,312.83 L 334.86,317.54 L 336.76,320.18 L 340.71,325.63 L 342.88,328.65 L 347.38,334.87 L 349.84,338.27 L 353.48,343.35 L 355.65,346.44 L 356.53,347.73 L 357.39,348.97 L 357.75,349.51 L 358.43,350.53 L 358.70,350.94 L 359.19,351.70 L 359.35,351.97 L 359.61,352.42 L 359.65,352.52 L 359.73,353.24 L 359.52,353.58 L 359.26,353.69 L 358.61,353.88 L 358.10,353.93 L 356.96,354.00 L 356.17,354.00 L 353.86,353.86 L 352.67,353.53 L 352.12,353.18 L 351.02,352.31 L 350.38,351.60 L 349.72,350.83 L 349.34,350.35 L 348.54,349.35 L 348.08,348.75 L 343.18,342.29 L 341.45,339.98 L 340.54,338.74 L 338.67,336.20 L 337.66,334.82 L 335.59,331.98 L 334.46,330.42 L 332.14,327.21 L 330.87,325.44 L 328.24,321.78 L 326.80,319.76 L 323.81,315.58 L 322.16,313.27 L 317.32,306.54 L 315.84,304.50 L 315.15,303.56 L 313.82,301.75 L 313.23,300.94 L 312.08,299.40 L 311.59,298.75 L 310.67,297.54 L 310.31,297.07 L 309.64,296.22 L 309.42,295.96 L 309.05,295.53 L 308.99,295.49 L 308.61,295.46 L 308.26,295.62 L 308.03,295.81 L 307.51,296.27 L 307.17,296.64 L 306.44,297.48 L 305.96,298.06 L 304.95,299.34 L 304.32,300.17 L 302.97,301.96 L 302.15,303.07 L 300.41,305.43 L 299.38,306.86 L 297.20,309.87 L 295.92,311.64 L 290.78,318.77 L 287.68,323.07 L 286.28,325.01 L 283.57,328.76 L 282.36,330.43 L 280.02,333.66 L 278.98,335.10 L 276.98,337.85 L 276.10,339.07 L 274.41,341.39 L 273.68,342.40 L 272.27,344.33 L 271.65,345.16 L 270.49,346.74 L 269.99,347.41 L 269.06,348.67 L 268.65,349.19 L 267.87,350.19 L 267.52,350.60 L 266.21,352.04 L 265.64,352.49 L 264.51,353.24 L 263.90,353.44 L 262.63,353.74 L 261.84,353.80 L 259.09,353.75 L 258.38,353.62 L 258.13,353.52 L 257.69,353.31 L 257.62,353.19 L 257.71,352.53 L 258.09,351.73 L 258.44,351.12 L 259.26,349.76 L 259.86,348.84 L 261.18,346.86 L 262.05,345.60 L 263.92,342.93 L 265.07,341.30 L 267.54,337.86 L 269.01,335.84 L 270.52,333.76 L 271.33,332.63 L 273.01,330.34 L 273.91,329.10 L 275.77,326.58 L 276.76,325.23 L 278.79,322.47 L 279.87,321.00 L 285.22,313.72 L 288.45,309.31 L 289.89,307.33 L 292.65,303.51 L 293.86,301.83 L 296.15,298.62 L 297.13,297.24 L 298.95,294.65 L 299.68,293.58 L 301.03,291.60 L 301.52,290.85 L 302.38,289.50 L 302.63,289.06 L 303.00,288.35 L 303.00,288.23 L 302.59,287.35 L 301.89,286.20 L 301.30,285.31 L 300.67,284.36 L 300.29,283.80 L 299.49,282.62 L 299.02,281.94 L 298.04,280.52 L 297.48,279.72 L 296.31,278.05 L 295.65,277.11 L 294.28,275.17 L 293.52,274.09 L 291.94,271.87 L 291.07,270.65 L 289.28,268.14 L 288.30,266.77 L 286.29,263.96 L 285.19,262.43 L 282.94,259.30 L 281.73,257.61 L 279.24,254.15 L 277.90,252.29 L 275.15,248.48 L 273.69,246.45 L 270.68,242.29 L 269.08,240.07 L 265.64,235.18 L 263.66,232.25 L 262.89,231.05 L 262.16,229.90 L 261.87,229.41 L 261.32,228.49 L 261.12,228.12 L 260.78,227.46 L 260.69,227.24 L 260.58,226.88 L 260.61,226.82 L 261.18,226.35 L 261.77,226.14 L 262.13,226.08 L 263.76,225.95 L 264.68,226.05 L 266.55,226.35 L 267.36,226.64 L 268.85,227.30 L 269.25,227.75 L 269.94,228.62 L 270.74,229.69 L 271.29,230.44 L 272.50,232.09 L 273.24,233.10 L 274.80,235.24 L 275.70,236.48 L 277.56,239.05 L 278.58,240.47 L 280.69,243.39 L 281.82,244.96 L 286.50,251.49 L 289.00,255.00 L 292.68,260.13 L 295.05,263.39 L 296.16,264.92 L 298.35,267.91 L 299.37,269.28 L 301.33,271.93 L 302.21,273.10 L 303.90,275.32 L 304.62,276.26 L 305.98,278.00 L 306.52,278.67 L 307.49,279.85 L 307.81,280.21 L 308.35,280.77 L 308.44,280.79 L 309.14,280.57 L 309.78,280.10 L 310.15,279.74 L 311.74,277.97 L 312.52,276.79 L 313.32,275.62 L 314.05,274.58 L 314.50,273.94 L 315.46,272.59 L 316.01,271.83 L 317.16,270.23 L 317.79,269.35 L 320.47,265.67 L 321.94,263.66 L 324.96,259.56 L 326.49,257.50 L 331.51,250.73 L 335.14,245.83 L 336.96,243.38 L 340.54,238.54 L 342.16,236.34 L 343.75,234.20 L 344.47,233.22 L 345.87,231.32 L 346.48,230.50 L 350.52,225.09 L 353.47,221.18 L 354.96,219.23 L 357.91,215.38 L 359.26,213.64 L 360.59,211.93 L 361.20,211.15 L 362.38,209.65 L 362.90,209.00 L 369.25,200.98 L 371.17,198.53 L 371.97,197.51 L 372.73,196.54 L 373.05,196.12 L 373.66,195.34 L 373.90,195.03 L 376.71,191.61 L 378.41,189.80 L 379.14,189.16 L 380.52,188.06 L 381.04,187.80 L 381.99,187.49 M 251.83,228.81 L 252.00,230.53 L 251.90,231.45 L 251.64,231.82 L 250.95,232.49 L 250.28,232.74 L 249.54,232.98 L 249.07,233.08 L 248.06,233.28 L 247.44,233.36 L 246.12,233.51 L 245.32,233.57 L 243.64,233.69 L 242.65,233.73 L 240.58,233.81 L 239.38,233.85 L 236.87,233.90 L 235.44,233.92 L 232.46,233.96 L 230.78,233.97 L 227.29,233.99 L 225.34,233.99 L 221.29,234.00 L 219.05,234.00 L 214.41,234.00 L 173.97,234.00 L 174.50,283.50 L 247.00,284.02 L 247.00,290.98 L 210.75,291.24 L 174.50,291.50 L 174.50,346.50 L 252.50,347.50 L 252.50,353.50 L 209.72,353.76 L 203.69,353.79 L 199.95,353.81 L 198.21,353.82 L 194.82,353.83 L 193.25,353.83 L 190.21,353.83 L 188.81,353.83 L 186.08,353.83 L 184.84,353.82 L 182.43,353.81 L 181.33,353.80 L 179.21,353.77 L 178.26,353.76 L 176.42,353.73 L 175.60,353.71 L 172.58,353.62 L 171.44,353.57 L 169.37,353.44 L 168.65,353.36 L 167.40,353.20 L 167.05,353.10 L 166.51,352.88 L 166.46,352.76 L 166.42,352.31 L 166.39,351.69 L 166.37,351.23 L 166.34,350.22 L 166.33,349.56 L 166.31,348.17 L 166.30,347.34 L 166.28,345.59 L 166.27,344.59 L 166.25,342.51 L 166.24,341.35 L 166.22,338.95 L 166.22,337.64 L 166.20,334.96 L 166.20,333.51 L 166.18,327.47 L 166.18,324.10 L 166.17,317.13 L 166.18,313.37 L 166.19,305.66 L 166.20,301.58 L 166.22,293.30 L 166.24,289.00 L 166.50,226.50 L 251.50,226.50 M 483.41,318.78 L 483.64,320.04 L 483.73,320.99 L 483.88,323.11 L 483.93,324.45 L 484.00,327.30 L 484.00,328.97 L 483.99,332.55 L 483.97,334.50 L 483.95,335.29 L 483.89,336.76 L 483.83,337.36 L 483.71,338.45 L 483.61,338.90 L 483.15,340.43 L 482.73,341.04 L 481.76,342.22 L 481.03,342.97 L 479.28,344.56 L 478.41,345.10 L 477.57,345.59 L 477.21,345.74 L 476.53,345.97 L 476.28,345.97 L 474.01,345.31 L 472.38,344.36 L 471.64,343.74 L 470.23,342.44 L 469.76,341.77 L 469.00,340.46 L 469.00,339.92 L 469.38,338.58 L 469.96,338.10 L 470.35,338.06 L 471.20,338.13 L 471.66,338.38 L 472.60,339.01 L 473.04,339.55 L 474.83,340.68 L 476.28,340.89 L 477.03,340.74 L 478.51,340.27 L 479.15,339.81 L 480.34,338.74 L 480.71,338.00 L 481.21,336.34 L 481.50,334.72 L 481.62,333.72 L 481.82,331.60 L 481.88,330.42 L 481.98,328.00 L 481.99,326.75 L 482.06,323.21 L 482.19,321.21 L 482.27,320.44 L 482.47,319.06 L 482.59,318.64 L 482.85,318.00 L 483.00,318.00 M 503.70,317.04 L 504.98,317.49 L 506.24,318.00 L 506.82,318.33 L 507.94,319.07 L 508.43,319.52 L 509.98,321.27 L 510.58,322.32 L 510.66,322.77 L 510.68,323.62 L 510.47,323.95 L 509.89,324.54 L 509.38,324.71 L 508.75,324.60 L 508.16,324.31 L 507.81,324.06 L 506.25,322.87 L 505.44,322.05 L 502.91,319.93 L 502.13,319.43 L 501.80,319.27 L 501.18,319.03 L 500.97,319.03 L 499.43,319.58 L 498.31,320.42 L 497.80,320.97 L 496.84,322.14 L 496.52,322.75 L 496.00,323.95 L 496.00,324.45 L 496.67,326.02 L 497.68,327.04 L 498.37,327.49 L 499.85,328.31 L 500.67,328.57 L 502.33,329.00 L 503.12,329.00 L 504.41,329.22 L 505.35,329.56 L 505.84,329.82 L 507.83,331.02 L 508.75,331.81 L 510.47,333.48 L 511.06,334.32 L 511.59,335.17 L 511.75,335.56 L 512.00,336.34 L 512.00,336.68 L 511.54,338.78 L 510.80,340.23 L 510.26,340.93 L 509.08,342.31 L 508.36,342.92 L 506.83,344.07 L 505.99,344.51 L 504.03,345.41 L 503.11,345.64 L 501.30,345.95 L 500.41,345.89 L 498.64,345.61 L 497.73,345.25 L 495.89,344.38 L 494.90,343.71 L 492.50,341.70 L 491.46,340.41 L 491.26,339.86 L 491.08,338.85 L 491.33,338.52 L 491.64,338.23 L 491.88,338.14 L 492.43,338.00 L 492.80,338.00 L 494.55,338.44 L 495.66,339.09 L 496.00,339.50 L 496.83,340.14 L 497.57,340.47 L 498.02,340.60 L 499.95,340.96 L 501.00,340.96 L 503.09,340.85 L 503.98,340.60 L 504.82,340.33 L 505.16,340.15 L 505.79,339.76 L 505.99,339.51 L 506.69,338.03 L 506.81,336.95 L 506.66,336.54 L 506.18,335.88 L 505.63,335.40 L 505.28,335.15 L 503.63,334.13 L 502.64,333.66 L 500.58,332.78 L 499.58,332.48 L 497.66,332.00 L 496.95,332.00 L 495.05,331.24 L 493.71,330.10 L 493.11,329.34 L 491.98,327.74 L 491.61,326.90 L 491.00,325.23 L 491.00,324.50 L 491.21,323.43 L 491.54,322.59 L 491.77,322.15 L 492.91,320.36 L 493.64,319.64 L 495.17,318.42 L 496.33,317.79 L 496.95,317.55 L 499.57,316.85 L 500.95,316.84 M 461.84,340.09 L 462.41,340.27 L 462.58,340.44 L 462.84,340.83 L 462.87,341.12 L 462.88,341.78 L 462.82,342.24 L 462.62,343.13 L 462.46,343.48 L 462.07,344.11 L 461.84,344.34 L 460.77,344.97 L 460.20,344.93 L 459.09,344.59 L 458.68,344.07 L 458.30,343.49 L 458.18,343.12 L 458.00,342.32 L 458.00,341.83 L 458.14,341.00 L 458.39,340.58 L 458.60,340.43 L 459.07,340.17 L 459.40,340.10 L 460.11,340.00 L 460.57,340.00 Z" fill="rgba(0,0,0,1)"/>
<path d="M 119.93,301.20 L 130.23,316.60 L 136.96,326.66 L 140.20,331.50 L 146.59,341.05 L 149.61,345.54 L 152.59,349.98 L 154.02,352.12 L 156.85,356.34 L 158.20,358.35 L 160.86,362.30 L 162.12,364.18 L 164.59,367.84 L 165.74,369.56 L 168.00,372.91 L 169.04,374.46 L 171.07,377.46 L 171.98,378.82 L 173.76,381.44 L 174.54,382.60 L 176.04,384.81 L 176.68,385.75 L 177.88,387.52 L 178.37,388.23 L 179.26,389.54 L 179.58,390.00 L 183.41,395.62 L 185.84,399.28 L 186.91,400.93 L 187.96,402.55 L 188.43,403.29 L 189.33,404.71 L 189.72,405.34 L 190.44,406.53 L 190.73,407.02 L 191.25,407.92 L 191.42,408.25 L 192.08,409.53 L 192.36,410.09 L 192.89,411.17 L 193.09,411.60 L 193.43,412.38 L 193.52,412.63 L 193.63,413.00 L 193.59,413.00 L 193.22,412.73 L 192.78,412.30 L 192.49,411.99 L 191.16,410.50 L 190.36,409.56 L 188.71,407.57 L 187.94,406.60 L 186.48,404.71 L 186.00,404.01 L 185.32,403.07 L 184.52,401.97 L 183.96,401.22 L 182.74,399.57 L 181.99,398.56 L 180.41,396.43 L 179.51,395.21 L 177.62,392.68 L 176.58,391.29 L 174.45,388.42 L 173.30,386.89 L 168.54,380.52 L 166.00,377.12 L 158.07,366.42 L 152.68,359.07 L 150.14,355.57 L 147.65,352.11 L 146.47,350.48 L 144.19,347.28 L 143.15,345.82 L 141.15,343.00 L 140.29,341.76 L 138.66,339.41 L 138.00,338.45 L 133.53,331.88 L 130.30,327.14 L 128.59,324.62 L 125.66,320.32 L 128.52,324.47 L 130.36,327.12 L 133.88,332.16 L 135.63,334.65 L 139.05,339.46 L 142.47,344.25 L 149.45,353.81 L 151.24,356.25 L 155.00,361.31 L 161.00,369.33 L 162.87,371.81 L 166.18,376.17 L 166.97,377.20 L 168.44,379.11 L 169.15,380.03 L 170.47,381.72 L 171.10,382.54 L 172.25,384.00 L 172.81,384.70 L 173.79,385.93 L 174.27,386.51 L 175.08,387.50 L 175.47,387.96 L 176.11,388.71 L 176.41,389.05 L 176.87,389.55 L 177.07,389.76 L 177.35,390.01 L 177.46,390.09 L 177.54,390.07 L 177.56,390.03 L 177.45,389.74 L 177.37,389.56 L 177.06,389.00 L 176.88,388.69 L 176.36,387.85 L 176.07,387.40 L 175.34,386.28 L 174.95,385.68 L 174.01,384.27 L 173.48,383.48 L 172.53,381.99 L 172.08,381.28 L 171.34,380.05 L 171.00,379.48 L 170.57,378.64 L 170.33,377.96 L 170.33,377.94 L 170.08,377.51 L 169.92,377.23 L 169.33,376.30 L 169.00,375.78 L 168.10,374.37 L 167.61,373.61 L 166.41,371.76 L 165.78,370.78 L 164.30,368.51 L 163.52,367.33 L 161.78,364.66 L 160.88,363.28 L 158.88,360.25 L 157.86,358.69 L 155.63,355.31 L 154.49,353.58 L 152.06,349.89 L 150.81,348.00 L 148.18,344.02 L 146.84,341.99 L 144.03,337.74 L 142.60,335.59 L 139.63,331.10 L 136.62,326.56 L 130.19,316.87 L 120.06,301.65 L 69.62,225.91 M 485.50,329.34 L 485.49,333.22 L 485.48,335.33 L 485.45,336.18 L 485.40,337.75 L 485.35,338.37 L 485.23,339.52 L 485.14,339.97 L 484.70,341.47 L 484.31,342.00 L 483.39,342.99 L 482.69,343.59 L 480.92,344.85 L 479.92,345.28 L 478.93,345.67 L 478.46,345.79 L 477.56,345.97 L 477.19,345.97 L 476.80,345.88 L 477.21,345.74 L 477.57,345.59 L 478.41,345.10 L 479.28,344.56 L 481.03,342.97 L 481.76,342.22 L 482.73,341.04 L 483.15,340.43 L 483.61,338.90 L 483.71,338.45 L 483.83,337.36 L 483.89,336.76 L 483.95,335.29 L 483.97,334.50 L 483.99,332.55 L 484.00,328.97 L 484.00,327.30 L 483.93,324.45 L 483.88,323.11 L 483.73,320.99 L 483.64,320.04 L 483.41,318.78 L 483.00,318.00 L 482.85,318.00 L 482.59,318.64 L 482.47,319.06 L 482.27,320.44 L 482.19,321.21 L 482.06,323.21 L 481.99,326.75 L 481.98,328.00 L 481.88,330.42 L 481.82,331.60 L 481.62,333.72 L 481.50,334.72 L 481.21,336.34 L 480.71,338.00 L 480.34,338.74 L 479.15,339.81 L 478.86,340.02 L 478.89,339.96 L 479.14,339.46 L 479.24,339.09 L 479.41,338.26 L 479.48,337.70 L 479.61,336.45 L 479.67,335.64 L 479.78,333.89 L 479.83,332.79 L 479.94,330.43 L 480.00,329.00 L 480.17,325.21 L 480.27,323.17 L 480.33,322.37 L 480.44,320.88 L 480.51,320.32 L 480.66,319.31 L 480.75,318.95 L 480.96,318.32 L 481.09,318.12 L 481.37,317.78 L 481.55,317.68 L 482.38,317.50 L 485.50,317.50 M 469.76,341.77 L 470.23,342.44 L 471.36,343.49 L 470.30,342.59 L 469.80,341.91 L 469.35,341.23 L 469.21,340.89 L 469.16,340.75 M 476.28,340.89 L 476.23,340.88 L 476.43,340.86 M 476.08,340.86 L 474.83,340.68 L 473.04,339.55 L 474.71,340.56 M 497.59,326.93 L 498.27,327.40 L 498.76,327.70 L 498.37,327.49 L 497.68,327.04 L 496.67,326.02 L 496.00,324.45 L 496.00,323.99 L 496.63,325.80 M 509.76,320.96 L 510.41,321.87 L 510.61,322.28 L 510.90,323.04 L 510.93,323.35 L 510.90,323.92 L 510.77,324.12 L 510.44,324.46 L 510.17,324.52 L 509.82,324.56 L 509.89,324.54 L 510.47,323.95 L 510.68,323.62 L 510.66,322.77 L 510.58,322.32 L 509.98,321.27 L 508.62,319.74 M 501.18,319.03 L 501.80,319.27 L 502.13,319.43 L 502.91,319.93 L 505.44,322.05 L 506.25,322.87 L 507.43,323.77 L 506.72,323.37 L 506.10,322.92 L 502.97,321.49 L 500.70,321.15 L 499.67,321.26 L 498.66,321.41 L 498.22,321.56 L 497.39,321.89 L 497.06,322.12 L 496.69,322.43 L 496.84,322.14 L 497.80,320.97 L 498.31,320.42 L 499.43,319.58 L 500.97,319.03 M 503.67,317.03 L 504.95,317.47 L 506.20,317.96 L 506.77,318.29 L 507.87,319.01 L 507.94,319.07 L 506.82,318.33 L 506.24,318.00 L 504.98,317.49 L 503.70,317.04 L 502.08,316.92 M 340.83,249.00 L 340.83,249.01 L 341.76,247.66 M 70.00,239.76 L 70.17,239.92 L 70.59,240.39 L 70.81,240.65 L 71.38,241.36 L 71.69,241.75 L 72.45,242.74 L 72.85,243.29 L 73.83,244.63 L 74.35,245.34 L 74.92,246.14 L 73.28,243.88 L 72.62,242.99 L 71.42,241.42 L 70.97,240.88 L 70.18,239.96 L 69.90,239.69 L 69.42,239.29 L 69.44,239.30 M 344.93,243.03 L 344.92,243.05 L 347.22,239.69 M 348.13,238.35 L 348.13,238.36 L 348.26,238.18 M 349.80,235.92 L 349.79,235.93 L 350.61,234.74 M 396.88,166.26 L 396.92,166.50 L 396.85,166.78 L 396.67,167.46 L 396.51,167.98 L 395.93,169.30 L 395.30,170.47 L 394.88,171.18 L 393.97,172.69 L 393.42,173.55 L 392.26,175.34 L 391.60,176.31 L 388.77,180.42 L 387.15,182.66 L 383.78,187.22 L 382.00,189.50 L 380.85,191.02 L 379.91,192.29 L 379.37,193.04 L 378.23,194.60 L 377.61,195.47 L 376.33,197.27 L 375.64,198.23 L 372.81,202.26 L 371.33,204.39 L 368.44,208.57 L 371.19,204.57 L 372.58,202.56 L 375.11,198.92 L 375.71,198.06 L 376.81,196.50 L 377.34,195.75 L 378.26,194.46 L 378.69,193.85 L 379.40,192.88 L 380.19,191.82 L 380.58,191.32 L 381.24,190.36 L 381.54,189.90 L 381.98,189.09 L 382.17,188.71 L 382.35,188.14 L 382.27,187.67 L 381.99,187.49 L 381.04,187.80 L 380.52,188.06 L 379.14,189.16 L 378.41,189.80 L 376.71,191.61 L 374.07,194.82 L 374.33,194.49 L 375.35,193.16 L 377.50,190.39 L 378.74,188.79 L 381.35,185.41 L 382.88,183.43 L 384.44,181.41 L 385.28,180.32 L 387.01,178.07 L 387.95,176.86 L 390.56,173.50 L 392.21,171.42 L 392.92,170.53 L 394.26,168.87 L 394.76,168.27 L 395.63,167.25 L 395.83,167.05 L 396.55,166.37 L 396.84,166.19 M 332.87,260.47 L 332.67,260.76 L 332.14,261.50 L 332.67,260.76 Z" fill="rgba(83,83,83,1)"/>
<path d="M 174.45,388.42 L 176.58,391.29 L 177.62,392.68 L 179.51,395.21 L 180.41,396.43 L 181.99,398.56 L 182.74,399.57 L 183.96,401.22 L 184.52,401.97 L 185.32,403.07 L 186.00,404.01 L 186.48,404.71 L 187.94,406.60 L 188.71,407.57 L 190.36,409.56 L 191.16,410.50 L 192.49,411.99 L 192.78,412.30 L 193.22,412.73 L 193.59,413.00 L 193.63,413.00 L 193.52,412.63 L 193.43,412.38 L 193.09,411.60 L 192.89,411.17 L 192.36,410.09 L 192.08,409.53 L 191.42,408.25 L 191.25,407.92 L 190.73,407.02 L 190.44,406.53 L 189.72,405.34 L 189.33,404.71 L 188.43,403.29 L 187.96,402.55 L 186.91,400.93 L 185.84,399.28 L 185.39,398.60 L 185.43,398.65 L 186.94,400.86 L 187.49,401.66 L 189.08,403.97 L 190.06,405.36 L 190.47,405.93 L 191.23,406.99 L 191.50,407.35 L 191.96,407.93 L 192.04,408.00 L 192.45,408.51 L 192.87,409.12 L 193.14,409.53 L 194.34,411.40 L 195.00,412.50 L 196.88,415.47 L 197.39,416.23 L 197.59,416.49 L 197.94,416.93 L 198.03,417.00 L 198.40,417.45 L 198.74,417.97 L 198.94,418.31 L 199.81,419.86 L 200.25,420.75 L 200.67,421.64 L 200.82,422.01 L 201.07,422.69 L 201.14,422.95 L 201.23,423.42 L 201.22,423.58 L 201.16,423.83 L 201.07,423.88 L 200.57,423.84 L 200.11,423.49 L 199.06,422.56 L 198.34,421.75 L 196.84,419.97 L 195.62,418.42 L 194.93,417.52 L 192.01,413.64 L 190.56,411.62 L 189.12,409.61 L 188.46,408.67 L 187.20,406.85 L 186.68,406.07 L 185.71,404.61 L 185.38,404.07 L 184.83,403.13 L 184.75,402.91 L 184.26,402.09 L 183.58,401.08 L 183.08,400.36 L 181.98,398.80 L 181.29,397.83 L 179.82,395.78 L 178.96,394.60 L 177.17,392.14 L 176.18,390.79 L 174.12,387.99 L 173.98,387.80 M 117.70,308.62 L 119.59,311.41 L 123.28,316.83 L 125.10,319.50 L 128.59,324.62 L 130.30,327.14 L 133.53,331.88 L 138.00,338.45 L 138.66,339.41 L 140.29,341.76 L 141.15,343.00 L 143.15,345.82 L 144.09,347.15 L 143.14,345.81 L 141.15,342.99 L 140.28,341.76 L 138.66,339.42 L 138.00,338.46 L 133.88,332.40 L 130.89,328.00 L 129.28,325.64 L 125.98,320.80 L 124.24,318.24 L 120.69,313.02 L 118.82,310.28 L 116.31,306.58 M 120.06,301.38 L 130.33,316.74 L 136.98,326.68 L 140.16,331.44 L 142.84,335.44 L 140.20,331.50 L 136.96,326.66 L 130.23,316.60 L 119.93,301.20 L 69.62,225.91 M 109.98,297.30 L 111.10,298.94 L 109.53,296.64 M 372.52,196.81 L 370.78,199.05 L 367.75,202.89 L 366.99,203.85 L 365.43,205.82 L 362.90,209.00 L 373.25,195.88 M 386.55,183.48 L 385.38,185.05 L 385.27,185.19 L 387.01,182.85 M 402.96,158.52 L 402.83,159.01 L 402.60,159.51 L 402.43,159.85 L 401.57,161.41 L 400.92,162.46 L 399.51,164.74 L 398.63,166.09 L 396.78,168.90 L 395.74,170.44 L 391.30,176.90 L 388.93,180.20 L 391.60,176.31 L 392.26,175.34 L 393.42,173.55 L 393.97,172.69 L 394.88,171.18 L 395.30,170.47 L 395.93,169.30 L 396.51,167.98 L 396.67,167.46 L 396.85,166.78 L 396.92,166.50 L 396.88,166.26 L 396.84,166.19 L 396.55,166.37 L 395.83,167.05 L 395.63,167.25 L 394.76,168.27 L 394.26,168.87 L 392.92,170.53 L 392.21,171.42 L 390.56,173.50 L 387.95,176.86 L 387.01,178.07 L 385.28,180.32 L 384.44,181.41 L 382.99,183.28 L 384.79,180.94 L 386.00,179.37 L 389.56,174.49 L 390.55,173.02 L 390.94,172.43 L 391.61,171.33 L 391.79,170.99 L 392.75,169.46 L 393.68,168.18 L 394.24,167.47 L 396.70,164.47 L 397.98,163.03 L 399.26,161.63 L 399.84,161.02 L 400.97,159.87 L 401.43,159.45 L 402.26,158.71 L 402.53,158.54 L 402.95,158.36 Z" fill="rgba(172,172,172,1)"/>
<path d="M 261.08,574.96 L 256.95,574.56 L 248.79,573.51 L 244.72,572.95 L 236.66,571.57 L 232.65,570.84 L 224.71,569.13 L 220.76,568.23 L 212.95,566.21 L 209.06,565.16 L 201.38,562.82 L 197.56,561.61 L 190.02,558.97 L 186.27,557.61 L 178.88,554.67 L 175.20,553.16 L 167.97,549.93 L 164.37,548.28 L 157.29,544.76 L 153.78,542.97 L 146.87,539.18 L 143.44,537.24 L 136.71,533.18 L 133.36,531.11 L 126.82,526.78 L 123.57,524.58 L 117.21,520.00 L 114.06,517.67 L 107.90,512.83 L 104.84,510.38 L 98.89,505.30 L 95.94,502.73 L 90.19,497.41 L 87.35,494.73 L 81.83,489.18 L 79.09,486.37 L 73.80,480.60 L 71.18,477.69 L 66.12,471.70 L 63.61,468.68 L 58.79,462.48 L 56.41,459.36 L 51.84,452.96 L 49.58,449.73 L 45.27,443.13 L 43.14,439.81 L 39.08,433.03 L 37.09,429.61 L 33.30,422.64 L 31.44,419.14 L 27.94,411.99 L 26.22,408.40 L 22.99,401.09 L 21.42,397.41 L 18.48,389.93 L 17.05,386.18 L 14.42,378.55 L 13.14,374.71 L 10.81,366.94 L 9.68,363.03 L 7.67,355.11 L 6.70,351.13 L 5.01,343.08 L 2.83,330.86 L 2.59,329.31 L 2.18,326.46 L 1.98,325.07 L 1.66,322.39 L 1.36,319.71 L 0.98,314.01 L 0.90,312.49 L 0.78,309.11 L 0.73,307.34 L 0.66,303.34 L 0.63,301.23 L 0.60,296.40 L 0.60,295.13 L 0.59,292.40 L 0.59,288.00 L 0.59,286.46 L 0.59,283.60 L 0.59,282.20 L 0.60,279.60 L 0.61,277.06 L 0.66,272.66 L 0.69,270.56 L 0.78,266.89 L 0.84,265.13 L 0.98,261.99 L 1.14,258.95 L 1.66,253.61 L 1.81,252.27 L 2.18,249.54 L 2.83,245.14 L 3.79,239.02 L 6.26,226.96 L 7.58,220.96 L 10.77,209.18 L 12.45,203.33 L 16.33,191.85 L 18.36,186.15 L 22.92,175.00 L 25.28,169.47 L 30.50,158.68 L 33.19,153.33 L 39.05,142.91 L 42.05,137.76 L 48.53,127.75 L 51.84,122.80 L 58.92,113.23 L 62.53,108.50 L 70.19,99.38 L 74.09,94.89 L 82.30,86.26 L 86.48,82.00 L 95.23,73.88 L 99.68,69.89 L 108.95,62.30 L 113.65,58.58 L 123.43,51.56 L 128.38,48.12 L 138.64,41.68 L 143.83,38.54 L 154.55,32.72 L 171.13,24.70 L 175.66,22.68 L 184.85,19.02 L 189.46,17.25 L 198.81,14.08 L 203.50,12.56 L 212.99,9.89 L 217.75,8.61 L 227.34,6.44 L 232.15,5.41 L 241.84,3.73 L 246.69,2.96 L 256.45,1.77 L 261.33,1.24 L 271.13,0.56 L 276.03,0.28 L 285.85,0.09 L 290.76,0.06 L 300.58,0.36 L 305.49,0.58 L 315.28,1.38 L 320.17,1.85 L 329.92,3.15 L 334.79,3.86 L 344.46,5.66 L 349.29,6.62 L 358.88,8.92 L 363.66,10.13 L 373.13,12.92 L 377.85,14.38 L 387.18,17.67 L 401.00,23.17 L 405.76,25.21 L 415.05,29.65 L 419.67,31.93 L 428.67,36.83 L 433.14,39.34 L 441.84,44.70 L 446.14,47.44 L 454.52,53.23 L 458.66,56.18 L 466.70,62.40 L 470.68,65.56 L 478.36,72.18 L 482.16,75.54 L 489.48,82.54 L 493.09,86.10 L 500.03,93.48 L 503.46,97.22 L 510.00,104.96 L 513.22,108.87 L 519.36,116.95 L 522.37,121.03 L 528.09,129.44 L 530.89,133.69 L 536.16,142.41 L 538.74,146.80 L 543.57,155.82 L 545.92,160.36 L 550.27,169.65 L 552.39,174.33 L 556.27,183.89 L 561.52,198.50 L 562.70,202.07 L 564.83,209.30 L 565.86,212.92 L 567.70,220.25 L 568.59,223.92 L 570.13,231.33 L 570.87,235.05 L 572.12,242.53 L 572.71,246.28 L 573.66,253.82 L 574.10,257.60 L 574.77,265.18 L 575.06,268.97 L 575.43,276.58 L 575.58,280.38 L 575.65,288.00 L 575.65,291.81 L 575.43,299.42 L 575.28,303.23 L 574.77,310.82 L 574.47,314.62 L 573.66,322.18 L 573.22,325.95 L 572.12,333.47 L 571.53,337.22 L 570.13,344.67 L 569.39,348.38 L 567.70,355.75 L 566.82,359.43 L 564.83,366.70 L 561.52,377.50 L 560.24,381.39 L 557.45,389.05 L 556.01,392.86 L 552.92,400.36 L 551.33,404.09 L 547.94,411.43 L 546.21,415.08 L 542.52,422.24 L 540.64,425.81 L 536.67,432.79 L 534.65,436.27 L 530.40,443.07 L 528.24,446.45 L 523.71,453.06 L 521.42,456.34 L 516.62,462.76 L 514.19,465.94 L 509.12,472.15 L 506.56,475.22 L 501.23,481.22 L 498.54,484.19 L 492.96,489.97 L 490.14,492.83 L 484.31,498.38 L 481.37,501.13 L 475.29,506.45 L 472.22,509.08 L 465.91,514.16 L 462.72,516.67 L 456.18,521.50 L 446.10,528.47 L 441.64,531.42 L 432.62,536.88 L 428.09,539.54 L 418.89,544.44 L 414.27,546.82 L 404.86,551.18 L 400.13,553.29 L 390.48,557.11 L 385.62,558.95 L 375.70,562.25 L 370.70,563.83 L 360.47,566.62 L 355.32,567.95 L 344.76,570.24 L 328.50,573.12 L 327.56,573.27 L 325.43,573.54 L 324.33,573.67 L 321.91,573.92 L 319.43,574.16 L 313.76,574.58 L 310.85,574.78 L 304.57,575.10 L 301.40,575.24 L 294.86,575.45 L 291.59,575.54 L 285.14,575.63 L 281.95,575.66 L 275.92,575.61 L 272.99,575.58 L 267.73,575.40 L 266.48,575.34 L 264.18,575.21 L 263.06,575.13 M 200.25,420.75 L 199.81,419.86 L 198.94,418.31 L 198.74,417.97 L 198.40,417.45 L 198.03,417.00 L 197.94,416.93 L 197.59,416.49 L 197.39,416.23 L 196.88,415.47 L 195.00,412.50 L 194.34,411.40 L 193.14,409.53 L 192.87,409.12 L 192.45,408.51 L 192.04,408.00 L 191.96,407.93 L 191.50,407.35 L 191.23,406.99 L 190.47,405.93 L 190.06,405.36 L 189.08,403.97 L 187.49,401.66 L 186.94,400.86 L 185.43,398.65 L 184.62,397.47 L 182.76,394.76 L 177.00,386.34 L 176.78,386.02 L 176.08,384.99 L 175.69,384.41 L 174.66,382.90 L 174.12,382.08 L 172.80,380.12 L 172.10,379.09 L 170.50,376.70 L 169.66,375.46 L 167.80,372.69 L 166.83,371.25 L 164.73,368.11 L 163.65,366.50 L 161.32,363.03 L 160.13,361.25 L 157.59,357.47 L 156.30,355.55 L 153.59,351.49 L 152.21,349.43 L 149.32,345.13 L 146.41,340.77 L 140.16,331.44 L 136.98,326.68 L 130.33,316.74 L 120.06,301.38 L 69.62,225.91 L 65.06,226.20 L 60.50,226.50 L 60.50,290.00 L 60.50,353.50 L 64.00,353.50 L 67.50,353.50 L 67.76,296.17 L 67.77,293.35 L 67.80,288.09 L 67.81,285.52 L 67.84,280.76 L 67.86,278.43 L 67.89,274.13 L 67.90,272.04 L 67.94,268.20 L 67.96,266.33 L 68.00,262.91 L 68.02,261.25 L 68.06,258.25 L 68.09,256.79 L 68.14,254.18 L 68.16,252.91 L 68.22,250.67 L 68.25,249.59 L 68.31,247.69 L 68.34,246.78 L 68.41,245.22 L 68.44,244.47 L 68.52,243.22 L 68.56,242.63 L 68.64,241.66 L 68.73,240.76 L 68.92,239.75 L 69.26,239.24 L 69.42,239.29 L 69.90,239.69 L 70.18,239.96 L 70.97,240.88 L 71.42,241.42 L 72.62,242.99 L 73.28,243.88 L 74.98,246.24 L 75.45,246.88 L 76.48,248.35 L 77.02,249.11 L 78.21,250.81 L 78.83,251.70 L 80.19,253.66 L 80.89,254.68 L 82.43,256.91 L 83.23,258.07 L 84.97,260.60 L 85.86,261.90 L 87.80,264.74 L 88.80,266.20 L 90.96,269.37 L 94.46,274.50 L 98.76,280.82 L 107.08,293.03 L 109.12,296.03 L 113.09,301.85 L 115.05,304.73 L 118.82,310.28 L 120.69,313.02 L 124.24,318.24 L 125.98,320.80 L 129.28,325.64 L 130.89,328.00 L 133.88,332.40 L 138.00,338.46 L 138.66,339.42 L 140.28,341.76 L 141.15,342.99 L 143.14,345.81 L 144.17,347.26 L 146.45,350.44 L 147.61,352.06 L 150.10,355.50 L 152.62,358.98 L 157.97,366.27 L 165.84,376.87 L 168.36,380.23 L 173.01,386.49 L 174.12,387.99 L 176.18,390.79 L 177.17,392.14 L 178.96,394.60 L 179.82,395.78 L 181.29,397.83 L 181.98,398.80 L 183.08,400.36 L 183.58,401.08 L 184.26,402.09 L 184.75,402.91 L 184.83,403.13 L 185.38,404.07 L 185.71,404.61 L 186.68,406.07 L 187.20,406.85 L 188.46,408.67 L 189.12,409.61 L 190.56,411.62 L 192.01,413.64 L 194.93,417.52 L 195.62,418.42 L 196.84,419.97 L 198.34,421.75 L 199.06,422.56 L 200.11,423.49 L 200.57,423.84 L 201.07,423.88 L 201.16,423.83 L 201.22,423.58 L 201.23,423.42 L 201.14,422.95 L 201.07,422.69 L 200.82,422.01 L 200.67,421.64 M 252.50,350.50 L 252.50,347.50 L 213.50,347.00 L 174.50,346.50 L 174.50,319.00 L 174.50,291.50 L 210.75,291.24 L 247.00,290.98 L 247.00,287.50 L 247.00,284.02 L 210.75,283.76 L 174.50,283.50 L 174.23,258.75 L 173.97,234.00 L 211.86,234.00 L 214.41,234.00 L 219.05,234.00 L 221.29,234.00 L 225.34,233.99 L 227.29,233.99 L 230.78,233.97 L 232.46,233.96 L 235.44,233.92 L 236.87,233.90 L 239.38,233.85 L 240.58,233.81 L 242.65,233.73 L 243.64,233.69 L 245.32,233.57 L 246.12,233.51 L 247.44,233.36 L 248.06,233.28 L 249.07,233.08 L 249.54,232.98 L 250.28,232.74 L 250.95,232.49 L 251.64,231.82 L 251.90,231.45 L 252.00,230.53 L 251.83,228.81 L 251.50,226.50 L 209.00,226.50 L 166.50,226.50 L 166.24,289.00 L 166.22,293.30 L 166.20,301.58 L 166.19,305.66 L 166.18,313.37 L 166.17,317.13 L 166.18,324.10 L 166.18,327.47 L 166.20,333.51 L 166.20,334.96 L 166.22,337.64 L 166.22,338.95 L 166.24,341.35 L 166.25,342.51 L 166.27,344.59 L 166.28,345.59 L 166.30,347.34 L 166.31,348.17 L 166.33,349.56 L 166.34,350.22 L 166.37,351.23 L 166.39,351.69 L 166.42,352.31 L 166.46,352.76 L 166.51,352.88 L 167.05,353.10 L 167.40,353.20 L 168.65,353.36 L 169.37,353.44 L 171.44,353.57 L 172.58,353.62 L 175.60,353.71 L 176.42,353.73 L 178.26,353.76 L 179.21,353.77 L 181.33,353.80 L 182.43,353.81 L 184.84,353.82 L 186.08,353.83 L 188.81,353.83 L 190.21,353.83 L 193.25,353.83 L 194.82,353.83 L 198.21,353.82 L 199.95,353.81 L 203.69,353.79 L 209.72,353.76 L 252.50,353.50 L 252.50,350.50 M 269.99,347.41 L 270.49,346.74 L 271.65,345.16 L 272.27,344.33 L 273.68,342.40 L 274.41,341.39 L 276.10,339.07 L 276.98,337.85 L 278.98,335.10 L 280.02,333.66 L 282.36,330.43 L 283.57,328.76 L 286.28,325.01 L 287.68,323.07 L 290.78,318.77 L 295.92,311.64 L 297.20,309.87 L 299.38,306.86 L 300.41,305.43 L 302.15,303.07 L 302.97,301.96 L 304.32,300.17 L 304.95,299.34 L 305.96,298.06 L 306.44,297.48 L 307.17,296.64 L 307.51,296.27 L 308.03,295.81 L 308.26,295.62 L 308.61,295.46 L 308.99,295.49 L 309.05,295.53 L 309.42,295.96 L 309.64,296.22 L 310.31,297.07 L 310.67,297.54 L 311.59,298.75 L 312.08,299.40 L 313.23,300.94 L 313.82,301.75 L 315.15,303.56 L 315.84,304.50 L 317.32,306.54 L 322.16,313.27 L 323.81,315.58 L 326.80,319.76 L 328.24,321.78 L 330.87,325.44 L 332.14,327.21 L 334.46,330.42 L 335.59,331.98 L 337.66,334.82 L 338.67,336.20 L 340.54,338.74 L 341.45,339.98 L 343.18,342.29 L 348.08,348.75 L 348.54,349.35 L 349.34,350.35 L 349.72,350.83 L 350.38,351.60 L 351.02,352.31 L 352.12,353.18 L 352.67,353.53 L 353.86,353.86 L 356.17,354.00 L 356.96,354.00 L 358.10,353.93 L 358.61,353.88 L 359.26,353.69 L 359.52,353.58 L 359.73,353.24 L 359.65,352.52 L 359.61,352.42 L 359.35,351.97 L 359.19,351.70 L 358.70,350.94 L 358.43,350.53 L 357.75,349.51 L 357.39,348.97 L 356.53,347.73 L 355.65,346.44 L 353.48,343.35 L 349.84,338.27 L 347.38,334.87 L 342.88,328.65 L 340.71,325.63 L 336.76,320.18 L 334.86,317.54 L 331.46,312.83 L 329.82,310.57 L 326.96,306.60 L 325.59,304.71 L 323.25,301.46 L 322.14,299.93 L 320.32,297.39 L 319.47,296.21 L 318.15,294.37 L 316.72,292.37 L 313.79,288.25 L 320.82,277.87 L 322.76,275.02 L 327.05,268.78 L 328.07,267.30 L 329.92,264.65 L 330.36,264.03 L 331.14,262.92 L 332.14,261.50 L 332.67,260.76 L 334.02,258.84 L 334.75,257.80 L 336.51,255.26 L 337.45,253.91 L 339.67,250.70 L 340.83,249.00 L 343.53,245.08 L 344.93,243.03 L 348.13,238.35 L 349.80,235.92 L 353.54,230.44 L 355.48,227.60 L 359.78,221.28 L 360.90,219.65 L 363.24,216.21 L 366.92,210.81 L 368.35,208.70 L 371.33,204.39 L 372.81,202.26 L 375.64,198.23 L 376.33,197.27 L 377.61,195.47 L 378.23,194.60 L 379.37,193.04 L 379.91,192.29 L 380.85,191.02 L 382.00,189.50 L 383.08,188.11 L 385.38,185.05 L 386.55,183.48 L 388.93,180.20 L 391.30,176.90 L 395.74,170.44 L 396.78,168.90 L 398.63,166.09 L 399.51,164.74 L 400.92,162.46 L 401.57,161.41 L 402.43,159.85 L 402.60,159.51 L 402.83,159.01 L 402.96,158.52 L 402.95,158.36 L 402.53,158.54 L 402.26,158.71 L 401.43,159.45 L 400.97,159.87 L 399.84,161.02 L 399.26,161.63 L 397.98,163.03 L 396.70,164.47 L 394.24,167.47 L 393.68,168.18 L 392.75,169.46 L 391.79,170.99 L 391.61,171.33 L 390.94,172.43 L 390.55,173.02 L 389.56,174.49 L 386.00,179.37 L 384.79,180.94 L 382.53,183.88 L 381.42,185.32 L 379.34,188.03 L 377.29,190.69 L 373.55,195.49 L 362.90,209.00 L 362.38,209.65 L 361.20,211.15 L 360.59,211.93 L 359.27,213.64 L 357.91,215.38 L 354.96,219.23 L 353.47,221.18 L 350.52,225.09 L 346.48,230.50 L 345.87,231.32 L 344.47,233.22 L 343.75,234.20 L 342.16,236.34 L 340.54,238.54 L 336.96,243.38 L 335.14,245.83 L 331.51,250.73 L 326.49,257.50 L 324.96,259.56 L 321.94,263.66 L 320.47,265.67 L 317.79,269.35 L 317.16,270.23 L 316.01,271.83 L 315.46,272.59 L 314.50,273.94 L 314.05,274.58 L 313.32,275.62 L 312.52,276.79 L 311.74,277.97 L 310.15,279.74 L 309.78,280.10 L 309.14,280.57 L 308.44,280.79 L 308.35,280.77 L 307.81,280.21 L 307.49,279.85 L 306.52,278.67 L 305.98,278.00 L 304.62,276.26 L 303.90,275.32 L 302.21,273.10 L 301.33,271.93 L 299.37,269.28 L 298.35,267.91 L 296.16,264.92 L 295.05,263.39 L 292.68,260.13 L 289.00,255.00 L 286.50,251.49 L 281.82,244.96 L 280.69,243.39 L 278.58,240.47 L 277.56,239.05 L 275.70,236.48 L 274.80,235.24 L 273.24,233.10 L 272.50,232.09 L 271.29,230.44 L 270.74,229.69 L 269.94,228.62 L 269.25,227.75 L 268.85,227.30 L 267.36,226.64 L 266.55,226.35 L 264.68,226.05 L 263.76,225.95 L 262.13,226.08 L 261.77,226.14 L 261.18,226.35 L 260.61,226.82 L 260.58,226.88 L 260.69,227.24 L 260.78,227.46 L 261.12,228.12 L 261.32,228.49 L 261.87,229.41 L 262.16,229.90 L 262.89,231.05 L 263.66,232.25 L 265.64,235.18 L 269.08,240.07 L 270.68,242.29 L 273.69,246.45 L 275.15,248.48 L 277.90,252.29 L 279.24,254.15 L 281.73,257.61 L 282.94,259.30 L 285.19,262.43 L 286.29,263.96 L 288.30,266.77 L 289.28,268.14 L 291.07,270.65 L 291.94,271.87 L 293.52,274.09 L 294.28,275.17 L 295.65,277.11 L 296.31,278.05 L 297.48,279.72 L 298.04,280.52 L 299.02,281.94 L 299.49,282.62 L 300.29,283.80 L 300.67,284.36 L 301.30,285.31 L 301.89,286.20 L 302.59,287.35 L 303.00,288.23 L 303.00,288.35 L 302.63,289.06 L 302.38,289.50 L 301.52,290.85 L 301.03,291.60 L 299.68,293.58 L 298.95,294.65 L 297.13,297.24 L 296.15,298.62 L 293.86,301.83 L 292.65,303.51 L 289.89,307.33 L 288.45,309.31 L 285.22,313.72 L 279.87,321.00 L 278.79,322.47 L 276.76,325.23 L 275.77,326.58 L 273.91,329.10 L 273.01,330.34 L 271.33,332.63 L 270.52,333.76 L 269.01,335.84 L 267.54,337.86 L 265.07,341.30 L 263.92,342.93 L 262.05,345.60 L 261.18,346.86 L 259.86,348.84 L 259.26,349.76 L 258.44,351.12 L 258.09,351.73 L 257.71,352.53 L 257.62,353.19 L 257.69,353.31 L 258.13,353.52 L 258.38,353.62 L 259.09,353.75 L 261.84,353.80 L 262.63,353.74 L 263.90,353.44 L 264.51,353.24 L 265.64,352.49 L 266.21,352.04 L 267.52,350.60 L 267.87,350.19 L 268.65,349.19 L 269.06,348.67 M 416.39,352.42 L 416.41,352.36 L 416.45,351.95 L 416.48,351.70 L 416.51,350.91 L 416.53,350.47 L 416.57,349.31 L 416.59,348.69 L 416.63,347.19 L 416.65,346.41 L 416.68,344.59 L 416.70,343.64 L 416.73,341.52 L 416.75,340.43 L 416.78,338.03 L 416.79,336.80 L 416.82,334.14 L 416.85,331.42 L 416.90,325.29 L 416.92,322.13 L 416.95,315.23 L 416.97,311.69 L 416.99,304.19 L 417.00,292.42 L 417.00,234.00 L 437.42,234.00 L 440.23,234.00 L 445.47,233.95 L 446.73,233.94 L 449.08,233.90 L 450.23,233.87 L 452.30,233.82 L 453.30,233.79 L 455.04,233.73 L 455.86,233.70 L 457.19,233.63 L 457.81,233.59 L 458.68,233.51 L 459.42,233.39 L 459.67,233.30 L 460.09,232.91 L 460.29,232.69 L 460.59,232.06 L 461.00,229.38 L 461.00,225.98 L 412.75,226.24 L 364.50,226.50 L 364.17,228.81 L 364.09,229.42 L 364.04,230.45 L 364.05,230.93 L 364.31,231.70 L 364.49,232.06 L 365.22,232.62 L 365.66,232.88 L 367.01,233.26 L 367.78,233.43 L 369.91,233.66 L 371.09,233.76 L 374.16,233.88 L 374.99,233.91 L 376.86,233.94 L 377.83,233.96 L 379.98,233.98 L 381.10,233.99 L 383.56,234.00 L 387.62,234.00 L 409.00,234.00 L 409.00,293.33 L 409.00,297.41 L 409.01,305.27 L 409.02,309.13 L 409.05,316.42 L 409.07,319.99 L 409.11,326.56 L 409.14,329.74 L 409.20,335.43 L 409.21,336.79 L 409.24,339.32 L 409.26,340.55 L 409.29,342.79 L 409.31,343.88 L 409.35,345.83 L 409.37,346.76 L 409.41,348.39 L 409.43,349.17 L 409.47,350.46 L 409.49,351.06 L 409.53,351.99 L 409.55,352.41 L 409.60,352.96 L 409.67,353.33 L 409.99,353.66 L 411.19,353.96 L 411.83,354.06 L 413.30,353.96 L 414.02,353.86 L 415.27,353.41 L 415.83,353.15 M 482.69,343.59 L 483.39,342.99 L 484.31,342.00 L 484.70,341.47 L 485.14,339.97 L 485.23,339.52 L 485.35,338.37 L 485.40,337.75 L 485.45,336.18 L 485.48,335.33 L 485.49,333.22 L 485.50,329.34 L 485.50,317.50 L 483.00,317.50 L 482.38,317.50 L 481.55,317.68 L 481.37,317.78 L 481.09,318.12 L 480.96,318.32 L 480.75,318.95 L 480.66,319.31 L 480.51,320.32 L 480.44,320.88 L 480.33,322.37 L 480.27,323.17 L 480.17,325.21 L 480.00,329.00 L 479.94,330.43 L 479.83,332.79 L 479.78,333.89 L 479.67,335.64 L 479.61,336.45 L 479.48,337.70 L 479.41,338.26 L 479.24,339.09 L 479.14,339.46 L 478.89,339.96 L 478.76,340.18 L 478.41,340.44 L 476.91,340.80 L 476.19,340.88 L 474.71,340.56 L 473.04,339.55 L 472.60,339.01 L 471.66,338.38 L 471.20,338.13 L 470.35,338.06 L 469.96,338.10 L 469.38,338.58 L 469.00,339.92 L 469.00,340.23 L 469.21,340.89 L 469.35,341.23 L 469.80,341.91 L 470.30,342.59 L 471.81,343.86 L 472.62,344.46 L 474.46,345.36 L 477.19,345.97 L 477.56,345.97 L 478.46,345.79 L 478.93,345.67 L 479.92,345.28 L 480.92,344.85 M 505.99,344.51 L 506.83,344.07 L 508.36,342.92 L 509.08,342.31 L 510.26,340.93 L 510.80,340.23 L 511.54,338.78 L 512.00,336.68 L 512.00,336.34 L 511.75,335.56 L 511.59,335.17 L 511.06,334.32 L 510.47,333.48 L 508.75,331.81 L 507.83,331.02 L 505.84,329.82 L 505.35,329.56 L 504.41,329.22 L 503.12,329.00 L 502.26,329.00 L 500.55,328.56 L 499.72,328.28 L 498.27,327.40 L 497.59,326.93 L 496.63,325.80 L 496.00,323.99 L 496.00,323.60 L 496.28,322.93 L 496.47,322.62 L 497.06,322.12 L 497.39,321.89 L 498.22,321.56 L 498.66,321.41 L 499.67,321.26 L 500.70,321.15 L 502.97,321.49 L 506.10,322.92 L 506.72,323.37 L 507.80,323.98 L 508.31,324.24 L 509.16,324.50 L 509.56,324.59 L 510.17,324.52 L 510.44,324.46 L 510.77,324.12 L 510.90,323.92 L 510.93,323.35 L 510.90,323.04 L 510.61,322.28 L 510.41,321.87 L 509.76,320.96 L 508.35,319.45 L 507.87,319.01 L 506.77,318.29 L 506.20,317.96 L 504.95,317.47 L 503.67,317.03 L 500.92,316.84 L 499.55,316.86 L 496.94,317.57 L 496.31,317.80 L 495.16,318.43 L 493.64,319.64 L 492.91,320.36 L 491.77,322.15 L 491.54,322.59 L 491.21,323.43 L 491.00,324.50 L 491.00,325.23 L 491.61,326.90 L 491.98,327.74 L 493.11,329.34 L 493.71,330.10 L 495.05,331.24 L 496.95,332.00 L 497.66,332.00 L 499.58,332.48 L 500.58,332.78 L 502.64,333.66 L 503.63,334.13 L 505.28,335.15 L 505.63,335.40 L 506.18,335.88 L 506.66,336.54 L 506.81,336.95 L 506.69,338.03 L 505.99,339.51 L 505.79,339.76 L 505.16,340.15 L 504.82,340.33 L 503.98,340.60 L 503.09,340.85 L 501.00,340.96 L 499.95,340.96 L 498.02,340.60 L 497.57,340.47 L 496.83,340.14 L 496.00,339.50 L 495.66,339.09 L 494.55,338.44 L 492.80,338.00 L 492.43,338.00 L 491.88,338.14 L 491.64,338.23 L 491.33,338.52 L 491.08,338.85 L 491.26,339.86 L 491.46,340.41 L 492.50,341.70 L 494.90,343.71 L 495.89,344.38 L 497.73,345.25 L 498.64,345.61 L 500.41,345.89 L 501.30,345.95 L 503.11,345.64 L 504.03,345.41 M 462.82,342.24 L 462.88,341.78 L 462.87,341.12 L 462.84,340.83 L 462.58,340.44 L 462.41,340.27 L 461.84,340.09 L 460.57,340.00 L 460.11,340.00 L 459.40,340.10 L 459.07,340.17 L 458.60,340.43 L 458.39,340.58 L 458.14,341.00 L 458.00,341.83 L 458.00,342.32 L 458.18,343.12 L 458.30,343.49 L 458.68,344.07 L 459.09,344.59 L 460.20,344.93 L 460.77,344.97 L 461.84,344.34 L 462.07,344.11 L 462.46,343.48 L 462.62,343.13 Z" fill="rgba(254,254,254,1)"/>
</g>
</svg>