<svg xmlns="http://www.w3.org/2000/svg" xmlns:xlink="http://www.w3.org/1999/xlink" width="500" zoomAndPan="magnify" viewBox="0 0 375 374.999991" height="500" preserveAspectRatio="xMidYMid meet" version="1.0"><defs><clipPath id="442a4e340e"><path d="M 2.21875 0 L 372.71875 0 L 372.71875 370.5 L 2.21875 370.5 Z M 2.21875 0 " clip-rule="nonzero"/></clipPath><clipPath id="1837998b49"><path d="M 41.332031 57 L 333.832031 57 L 333.832031 318 L 41.332031 318 Z M 41.332031 57 " clip-rule="nonzero"/></clipPath></defs><path fill="#ffffff" d="M 366.988281 185.277344 C 366.988281 284.402344 286.621094 364.769531 187.496094 364.769531 C 88.371094 364.769531 8.007812 284.402344 8.007812 185.277344 C 8.007812 86.15625 88.371094 5.789062 187.496094 5.789062 C 286.621094 5.789062 366.988281 86.15625 366.988281 185.277344 Z M 366.988281 185.277344 " fill-opacity="1" fill-rule="nonzero"/><g clip-path="url(#442a4e340e)"><path fill="#00d8ff" d="M 187.496094 0 C 85.363281 0 2.21875 83.144531 2.21875 185.277344 C 2.21875 287.414062 85.363281 370.558594 187.496094 370.558594 C 289.632812 370.558594 372.777344 287.414062 372.777344 185.277344 C 372.777344 83.144531 289.632812 0 187.496094 0 Z M 187.496094 358.980469 C 91.730469 358.980469 13.796875 281.046875 13.796875 185.277344 C 13.796875 89.511719 91.730469 11.578125 187.496094 11.578125 C 283.261719 11.578125 361.195312 89.511719 361.195312 185.277344 C 361.195312 281.046875 283.261719 358.980469 187.496094 358.980469 Z M 187.496094 358.980469 " fill-opacity="1" fill-rule="nonzero"/></g><g clip-path="url(#1837998b49)"><path fill="#00d8ff" d="M 281.824219 141.675781 C 278.789062 140.632812 275.644531 139.644531 272.410156 138.707031 C 272.941406 136.539062 273.429688 134.394531 273.863281 132.285156 C 280.992188 97.6875 276.332031 69.816406 260.417969 60.636719 C 245.15625 51.839844 220.203125 61.015625 195 82.949219 C 192.574219 85.058594 190.144531 87.289062 187.714844 89.628906 C 186.097656 88.082031 184.480469 86.585938 182.871094 85.152344 C 156.457031 61.699219 129.980469 51.816406 114.082031 61.019531 C 98.835938 69.847656 94.324219 96.050781 100.738281 128.839844 C 101.359375 132.003906 102.082031 135.238281 102.902344 138.527344 C 99.152344 139.59375 95.535156 140.726562 92.074219 141.933594 C 61.109375 152.730469 41.332031 169.648438 41.332031 187.203125 C 41.332031 205.328125 62.5625 223.511719 94.816406 234.535156 C 97.363281 235.40625 100.003906 236.226562 102.726562 237.007812 C 101.839844 240.566406 101.074219 244.050781 100.429688 247.449219 C 94.3125 279.671875 99.089844 305.253906 114.292969 314.023438 C 129.996094 323.078125 156.351562 313.769531 182.015625 291.335938 C 184.046875 289.5625 186.082031 287.683594 188.121094 285.710938 C 190.761719 288.257812 193.402344 290.667969 196.027344 292.925781 C 220.886719 314.316406 245.4375 322.957031 260.628906 314.164062 C 276.316406 305.082031 281.414062 277.597656 274.796875 244.160156 C 274.289062 241.605469 273.703125 238.996094 273.042969 236.339844 C 274.890625 235.792969 276.710938 235.230469 278.480469 234.640625 C 312.011719 223.53125 333.832031 205.570312 333.832031 187.203125 C 333.832031 169.585938 313.414062 152.550781 281.824219 141.675781 Z M 274.550781 222.78125 C 272.953125 223.308594 271.3125 223.820312 269.636719 224.316406 C 265.9375 212.597656 260.941406 200.136719 254.828125 187.261719 C 260.660156 174.695312 265.464844 162.390625 269.0625 150.75 C 272.054688 151.613281 274.957031 152.527344 277.757812 153.492188 C 304.824219 162.808594 321.335938 176.585938 321.335938 187.203125 C 321.335938 198.507812 303.503906 213.1875 274.550781 222.78125 Z M 262.539062 246.585938 C 265.464844 261.371094 265.882812 274.738281 263.945312 285.191406 C 262.203125 294.582031 258.699219 300.839844 254.367188 303.347656 C 245.148438 308.683594 225.4375 301.75 204.175781 283.453125 C 201.738281 281.355469 199.285156 279.117188 196.820312 276.746094 C 205.0625 267.734375 213.300781 257.253906 221.339844 245.617188 C 235.480469 244.363281 248.839844 242.3125 260.953125 239.511719 C 261.550781 241.917969 262.082031 244.277344 262.539062 246.585938 Z M 141.050781 302.425781 C 132.042969 305.605469 124.871094 305.699219 120.535156 303.199219 C 111.308594 297.875 107.472656 277.335938 112.707031 249.78125 C 113.304688 246.625 114.019531 243.382812 114.839844 240.070312 C 126.824219 242.71875 140.082031 244.625 154.257812 245.773438 C 162.351562 257.164062 170.828125 267.628906 179.367188 276.796875 C 177.5 278.597656 175.640625 280.3125 173.792969 281.929688 C 162.445312 291.847656 151.074219 298.886719 141.050781 302.425781 Z M 98.859375 222.710938 C 84.59375 217.835938 72.816406 211.5 64.742188 204.585938 C 57.488281 198.375 53.824219 192.207031 53.824219 187.203125 C 53.824219 176.550781 69.703125 162.964844 96.1875 153.730469 C 99.402344 152.609375 102.765625 151.554688 106.257812 150.5625 C 109.917969 162.46875 114.71875 174.917969 120.511719 187.503906 C 114.644531 200.28125 109.773438 212.925781 106.078125 224.972656 C 103.589844 224.257812 101.179688 223.503906 98.859375 222.710938 Z M 113 126.4375 C 107.503906 98.347656 111.15625 77.152344 120.34375 71.835938 C 130.128906 66.171875 151.765625 74.246094 174.574219 94.5 C 176.03125 95.792969 177.492188 97.148438 178.960938 98.546875 C 170.460938 107.675781 162.066406 118.0625 154.042969 129.382812 C 140.289062 130.660156 127.117188 132.707031 115.011719 135.449219 C 114.25 132.386719 113.578125 129.378906 113 126.4375 Z M 239.171875 157.59375 C 236.277344 152.59375 233.308594 147.714844 230.277344 142.964844 C 239.609375 144.144531 248.550781 145.710938 256.949219 147.628906 C 254.429688 155.707031 251.285156 164.15625 247.585938 172.816406 C 244.933594 167.777344 242.128906 162.699219 239.171875 157.59375 Z M 187.71875 107.480469 C 193.484375 113.722656 199.253906 120.695312 204.933594 128.257812 C 199.210938 127.988281 193.421875 127.847656 187.582031 127.847656 C 181.796875 127.847656 176.046875 127.984375 170.363281 128.25 C 176.042969 120.757812 181.867188 113.792969 187.71875 107.480469 Z M 135.9375 157.679688 C 133.046875 162.695312 130.292969 167.746094 127.679688 172.804688 C 124.042969 164.175781 120.929688 155.691406 118.386719 147.496094 C 126.730469 145.628906 135.632812 144.101562 144.90625 142.945312 C 141.832031 147.734375 138.835938 152.652344 135.9375 157.679688 Z M 145.171875 232.351562 C 135.589844 231.28125 126.558594 229.832031 118.214844 228.015625 C 120.796875 219.675781 123.980469 211.007812 127.695312 202.195312 C 130.3125 207.25 133.078125 212.304688 135.988281 217.328125 C 138.953125 222.445312 142.019531 227.460938 145.171875 232.351562 Z M 188.066406 267.804688 C 182.144531 261.414062 176.234375 254.347656 170.46875 246.742188 C 176.066406 246.964844 181.777344 247.074219 187.582031 247.074219 C 193.542969 247.074219 199.4375 246.941406 205.238281 246.683594 C 199.542969 254.421875 193.789062 261.503906 188.066406 267.804688 Z M 247.707031 201.746094 C 251.617188 210.65625 254.910156 219.277344 257.527344 227.476562 C 249.046875 229.410156 239.890625 230.96875 230.242188 232.125 C 233.28125 227.316406 236.277344 222.347656 239.222656 217.242188 C 242.203125 212.074219 245.03125 206.902344 247.707031 201.746094 Z M 228.398438 211 C 223.828125 218.929688 219.132812 226.496094 214.367188 233.640625 C 205.6875 234.261719 196.71875 234.582031 187.582031 234.582031 C 178.476562 234.582031 169.625 234.296875 161.097656 233.742188 C 156.140625 226.507812 151.34375 218.914062 146.800781 211.066406 C 142.269531 203.242188 138.101562 195.347656 134.320312 187.5 C 138.097656 179.632812 142.257812 171.734375 146.765625 163.921875 L 146.761719 163.921875 C 151.28125 156.089844 156.035156 148.535156 160.945312 141.34375 C 169.644531 140.6875 178.566406 140.34375 187.582031 140.34375 C 196.636719 140.34375 205.566406 140.6875 214.265625 141.351562 C 219.101562 148.492188 223.824219 156.019531 228.359375 163.855469 C 232.945312 171.777344 237.15625 179.625 240.96875 187.324219 C 237.167969 195.152344 232.964844 203.082031 228.398438 211 Z M 254.175781 71.464844 C 263.96875 77.113281 267.78125 99.894531 261.625 129.765625 C 261.234375 131.671875 260.789062 133.613281 260.3125 135.578125 C 248.175781 132.78125 234.996094 130.695312 221.203125 129.402344 C 213.164062 117.957031 204.835938 107.550781 196.476562 98.542969 C 198.722656 96.378906 200.96875 94.320312 203.203125 92.375 C 224.796875 73.582031 244.980469 66.160156 254.175781 71.464844 Z M 187.582031 161.082031 C 202.003906 161.082031 213.699219 172.777344 213.699219 187.203125 C 213.699219 201.625 202.003906 213.320312 187.582031 213.320312 C 173.15625 213.320312 161.460938 201.625 161.460938 187.203125 C 161.460938 172.777344 173.15625 161.082031 187.582031 161.082031 Z M 187.582031 161.082031 " fill-opacity="1" fill-rule="nonzero"/></g></svg>